<?xml version="1.0" encoding="utf-8"?>
<!DOCTYPE svg PUBLIC "-//W3C//DTD SVG 1.1//EN"
	"http://www.w3.org/Graphics/SVG/1.1/DTD/svg11.dtd">
<svg width="151.32mm" height="40.237mm" version="1.1" viewBox="0 0 151.32 40.237" xmlns="http://www.w3.org/2000/svg">
  <g transform="translate(-4.4174 -72.863)" stroke="#fff">
    <g transform="matrix(.67634 0 0 .67634 13.881 19.106)" stroke-width=".29571" aria-label="Mein">
      <g transform="matrix(2.0706 0 0 2.0706 -27.811 -91.916)" fill="#d10019" stroke="#fff" stroke-width=".14282">
        <path d="m29.08 86.08-0.2032-1.3631q-0.03387-0.2032-0.05503-0.3683-0.01693-0.1651-0.03387-0.31327h-0.0085q-0.02963 0.13547-0.06773 0.28787-0.03387 0.14817-0.0889 0.32173l-0.45297 1.4351h-0.5461l-0.43603-1.325q-0.05927-0.1778-0.11007-0.35983-0.04657-0.18627-0.07197-0.35983h-0.0085q-0.0127 0.1905-0.03387 0.36407-0.02117 0.17357-0.04657 0.36407l-0.16087 1.3166h-0.5588l0.44027-2.8575h0.64347l0.47837 1.469q0.1016 0.30057 0.15663 0.60113h0.0085q0.03387-0.1651 0.06773-0.29633 0.0381-0.13547 0.09313-0.29633l0.49107-1.4774h0.63923l0.4445 2.8575z"/>
        <path d="m30.121 86.08v-2.2013h1.3547v0.42757h-0.80857v0.44027h0.77047v0.41487h-0.77047v0.4826h0.80857v0.43603z"/>
        <path d="m32.077 86.08v-2.2013h0.5461v2.2013z"/>
        <path d="m34.693 86.08-0.6604-1.0753q-0.05927-0.09313-0.1143-0.19897-0.0508-0.11007-0.09313-0.2032h-0.0042q0.0085 0.08043 0.0085 0.16933 0.0042 0.0889 0.0042 0.22013v1.088h-0.52493v-2.2013h0.73237l0.63923 1.0499q0.127 0.19897 0.2286 0.4191h0.0042q-0.0127-0.19473-0.0127-0.54187l-0.0042-0.9271h0.52917v2.2013z"/>
      </g>
    </g>
    <g transform="rotate(-16.201 12.272 77.798)" fill="#d10019" stroke-width=".7" aria-label="K">
      <path d="m21.487 111.81-8.6007-16.002v16.002h-8.5372v-33.338h8.5372v15.113l8.6995-15.113h8.8618l-9.5532 16.101 10.097 17.237z" fill="#d10019" stroke="#fff" stroke-width=".7"/>
    </g>
    <g transform="translate(5.3268 -8.0407)" stroke-linecap="round" stroke-linejoin="round" stroke-width=".7" aria-label="inderkram">
      <path d="m26.511 101.65v-13.208h3.2766v13.208z" fill="#e85113"/>
      <path d="m42.056 101.65-3.9624-6.4516q-0.3556-0.5588-0.6858-1.1938-0.3048-0.6604-0.5588-1.2192h-0.0254q0.0508 0.4826 0.0508 1.016 0.0254 0.5334 0.0254 1.3208v6.5278h-3.1496v-13.208h4.3942l3.8354 6.2992q0.762 1.1938 1.3716 2.5146h0.0254q-0.0762-1.1684-0.0762-3.2512l-0.0254-5.5626h3.175v13.208z" fill="#ef8000"/>
      <path d="m62.706 94.817q0 1.8034-0.6096 3.1242-0.6096 1.2954-1.6764 2.1336-1.0414 0.8382-2.4892 1.2446-1.4224 0.4064-3.0988 0.4064-1.3462 0-2.4384-0.0254-1.0668-0.0254-1.9812-0.0762v-13.183q0.4572 0 1.0668 0 0.635-0.0254 1.3462-0.0254 0.7112-0.0254 1.4224-0.0254 0.7112-0.0254 1.3208-0.0254 1.6002 0 2.921 0.3556t2.2606 1.143q0.9398 0.762 1.4478 2.0066 0.508 1.2192 0.508 2.9464zm-3.4798 0.1524q0-3.937-3.9878-3.937-0.3556 0-0.7874 0.0254-0.4064 0-0.762 0.0508v7.7978q0.2286 0.0508 0.635 0.0762 0.4064 0 0.8382 0 1.778 0 2.921-0.9906 1.143-1.016 1.143-3.0226z" fill="#f6a800"/>
      <path d="m65.576 101.65v-13.208h8.128v2.5654h-4.8514v2.6416h4.6228v2.4892h-4.6228v2.8956h4.8514v2.6162z" fill="#ecc500"/>
      <path d="m83.889 101.65-3.2512-5.1562h-0.127v5.1562h-3.2766v-13.208q0.8128-0.0508 2.1336-0.0508 1.3462-0.0254 2.6162-0.0254 2.4638 0 3.81 0.9398 1.3716 0.9398 1.3716 2.8702 0 1.524-0.889 2.4638-0.8636 0.9398-2.3114 1.2954 0.2032 0.2794 0.4572 0.6604 0.254 0.3556 0.5334 0.7874l2.921 4.2672zm-0.2032-9.144q0-0.7874-0.5842-1.2192t-1.6002-0.4318q-0.2794 0-0.5334 0.0254-0.2286 0-0.4572 0.0254v3.3782q0.254 0.0508 0.5334 0.0508t0.5588 0q0.9652 0 1.524-0.508t0.5588-1.3208z" fill="#b2c900"/>
      <path d="m98.139 101.65-4.3434-5.9944v5.9944h-3.2766v-13.208h3.2766v5.6642l4.3434-5.6642h4.0132l-5.08 6.35 5.3848 6.858z" fill="#58ab26"/>
      <path d="m111.55 101.65-3.2512-5.1562h-0.127v5.1562h-3.2766v-13.208q0.8128-0.0508 2.1336-0.0508 1.3462-0.0254 2.6162-0.0254 2.4638 0 3.81 0.9398 1.3716 0.9398 1.3716 2.8702 0 1.524-0.889 2.4638-0.8636 0.9398-2.3114 1.2954 0.2032 0.2794 0.4572 0.6604 0.254 0.3556 0.5334 0.7874l2.921 4.2672zm-0.2032-9.144q0-0.7874-0.5842-1.2192t-1.6002-0.4318q-0.2794 0-0.5334 0.0254-0.2286 0-0.4572 0.0254v3.3782q0.254 0.0508 0.5334 0.0508t0.5588 0q0.9652 0 1.524-0.508t0.5588-1.3208z" fill="#009037"/>
      <path d="m126.66 101.65-0.8128-2.3114h-5.1054l-0.8382 2.3114h-3.302l4.9022-13.208h3.8862l4.8768 13.208zm-2.7432-7.7978q-0.1778-0.4572-0.3556-0.9906-0.1524-0.5334-0.2794-0.9652h-0.0254q-0.127 0.4318-0.2794 0.9398-0.127 0.4826-0.3048 0.9398l-1.1684 3.2004h3.556z" fill="#006331"/>
      <path d="m146.58 101.65-0.889-6.35q-0.127-0.8382-0.2286-1.5748-0.0762-0.7366-0.127-1.3208h-0.0254q-0.2794 1.3208-0.6604 2.6162l-2.1336 6.6294h-3.4036l-1.905-6.1214q-0.2286-0.7112-0.4572-1.524-0.2032-0.8128-0.3556-1.5494h-0.0254q-0.0508 0.7366-0.127 1.4732-0.0508 0.7366-0.1778 1.5494l-0.7874 6.1722h-3.2766l2.0574-13.208h4.1148l2.159 6.7056q0.1778 0.5588 0.3302 1.1938 0.1778 0.635 0.3048 1.2954h0.0254q0.127-0.7112 0.2794-1.27 0.1524-0.5842 0.3556-1.1684l2.2352-6.7564h4.191l2.0066 13.208z" fill="#007489"/>
    </g>
  </g>
</svg>
